<?xml version="1.0" standalone="yes"?>
<svg xmlns="http://www.w3.org/2000/svg" width="1080" height="1527">
<path style="fill:#758bfd; stroke:none;" d="M186 980C183.372 988.895 187.022 1000.18 189.116 1009C195.955 1037.82 210.199 1061.72 229.7 1083.71C248.499 1104.91 270.67 1124.69 296 1138.11C310.242 1145.66 326.183 1150 341 1156.17C368.227 1167.51 394.422 1179.04 424 1182.72C454.622 1186.53 485.265 1182.89 516 1185L516 1183C518.384 1183.74 519.787 1184.31 521 1182C524.786 1184.53 528.496 1183.21 532.83 1182.92C539.32 1182.49 545.516 1182.91 552 1181.97C562.185 1180.5 572.727 1180.29 583 1178.89C595.021 1177.24 606.996 1174.6 619 1172.59C625.912 1171.43 632.37 1169.97 639 1167.7C641.945 1166.69 644.982 1166.4 647 1164C651.822 1165.22 658.868 1164.17 662 1160C667.578 1160.93 680.288 1158.41 684 1154C694.1 1155.98 708.352 1148.1 718 1145.03C731.21 1140.82 746.614 1135.52 757.985 1127.43C764.172 1123.03 768.74 1116.4 774.015 1111C786.527 1098.19 799.009 1084.7 809.279 1070C814.605 1062.38 818.59 1053.94 823.645 1046.17C841.119 1019.3 854.741 988.331 857.83 956C861.28 919.901 852.983 885.423 840.061 852C837.258 844.75 835.263 837.032 831.961 830C821.939 808.655 807.382 788.623 793.106 769.999C786.31 761.134 780.236 752.024 771.999 744.314C758.364 731.552 741.836 723.2 726.089 713.512C715.76 707.158 706.437 700.444 695 696C704.759 687.067 715.185 678.889 724.819 669.83C731.366 663.675 736.897 656.526 742.731 649.746C758.955 630.89 773.663 611.258 782.745 588C798.657 547.253 814.91 504.511 812.961 460C812.029 438.73 804.702 418.337 796.427 399C788.028 379.37 778.894 359.803 765.541 342.985C756.127 331.129 743.265 321.028 731.424 311.711C708.026 293.301 685.421 278.66 656 271.598C641.538 268.127 625.834 267.339 611 267.339C605.113 267.339 599.282 268.971 593.424 269.137C567.885 269.857 542.073 268.069 516.985 273.91C508.134 275.971 499.644 279.817 491.439 283.62C487.468 285.461 483.356 288.601 479 289.335C475.216 289.973 470.871 288.956 467 289.05C452.68 289.398 438.327 288.39 424 289.039C419.069 289.263 414.777 291.299 410 292.145C398.305 294.217 386.724 296.388 375.039 298.726C366.789 300.377 358.209 300.351 350 302.339C328.9 307.451 304.538 318.305 288.079 332.5C283.652 336.318 280.901 341.505 277.246 346C266.843 358.795 257.081 372.947 248.468 387C244.948 392.743 242.683 399.205 239.243 405C214.738 446.281 190.578 496.754 192.595 546C192.867 552.65 195.335 558.566 196.572 565C200.476 585.307 207.673 603.897 215.424 623C217.288 627.594 218.255 632.469 220.312 637C224.112 645.369 229.632 655.333 236.104 661.907C239.225 665.076 243.238 667.156 246.365 670.299C253.55 677.522 260.122 685.072 268.17 691.441C273.254 695.465 278.929 698.545 283.984 702.64C285.332 703.732 288.589 705.443 288.23 707.59C287.92 709.446 285.378 710.894 284.031 711.921C279.828 715.126 275.44 718.138 271 721.001C255.739 730.841 238.23 741.758 226.093 755.424C214.221 768.793 208.869 785.705 202.351 802C192.945 825.514 184.567 850.781 181.289 876C179.243 891.743 180.144 907.736 180.151 923.576C180.157 937.092 182.662 950.491 183.015 964C183.128 968.328 182.699 977.116 186 980M670 699C670.479 700.498 670.4 700.35 670 702C677.011 703.875 684.805 709.216 692 709C696.768 714.563 704.814 717.196 710.961 721.127C727.529 731.721 744.929 740.754 759.911 753.665C770.604 762.879 778.251 774.778 786.58 786C798.328 801.828 810.332 819.043 818.676 837C821.789 843.701 823.408 851.126 826.134 858C833.003 875.322 839.266 893.412 841.711 912C842.831 920.52 842.34 928.513 842.34 937C842.34 946.515 843.379 955.474 841.678 965C840.881 969.466 838.888 973.621 837.759 978C834.354 991.209 830.066 1005.75 823.866 1018C820.689 1024.28 816.183 1029.93 812.558 1035.96C801.839 1053.8 791.23 1069.98 777.039 1085.25C767.685 1095.33 759.586 1108.18 748 1115.9C725.112 1131.14 696.516 1135.06 671 1143.52C628.37 1157.66 583.753 1165.02 539 1168.09C514.082 1169.8 489.835 1170.86 465 1169.09C458.329 1168.61 451.716 1170.25 445 1169.96C426.095 1169.13 407.115 1165.49 389 1159.96C377.299 1156.39 366.395 1150.23 355 1145.81C335.617 1138.3 315.296 1131.64 297 1121.65C291.492 1118.64 287.052 1114.29 281.999 1110.64C271.967 1103.4 262.163 1096.23 252.985 1087.83C238.829 1074.86 230.126 1057.6 217 1044C216.377 1037.87 212.795 1032.58 210.428 1027C206.998 1018.92 203.608 1009.62 201.965 1001C198.523 982.926 197.766 963.367 196.961 945C196.119 925.805 193.327 906.282 195.17 887C197.485 862.765 204.614 839.791 212.761 817C218.388 801.259 224.026 782.748 233.663 768.95C238.899 761.453 246.774 756.929 253.924 751.501C268.29 740.596 283.388 730.663 298.001 720.111C302.84 716.616 309.33 717.536 313.723 714.107C315.958 712.363 316.861 709.486 318 707L315 708C315.661 706.603 315.964 706.186 317 705C312.466 702.23 307.467 701.186 303.015 698.543C297.5 695.27 293.189 690.485 288 686.782C272.766 675.908 257.466 663.398 245.326 648.996C240.738 643.554 236.13 636.627 233.478 630C231.918 626.1 231.478 621.885 229.829 618C218.324 590.886 206.038 560.957 208.09 531C209.393 511.961 215.119 493.925 221.344 476C223.952 468.492 229.483 459.901 230 452C237.936 444.086 241.349 430.63 246.951 421C259.647 399.174 271.672 377.45 287.251 357.425C290.643 353.064 293.304 348.086 297.184 344.103C306.674 334.364 322.579 328.502 335.004 323.537C339.671 321.672 344.106 318.794 349 317.553C355.861 315.813 363.119 315.98 370 314.621C387.668 311.131 405.962 305.444 424 303.88C437.502 302.71 451.465 303.975 465 303.714C480.141 303.423 493.621 308.68 508 312.525C510.938 313.311 513.978 314.408 516.999 314.777C519.642 315.099 521.978 314.234 524 316C526.522 314.083 529.058 313.185 530 310C534.48 305.94 529.904 305.046 530 301C521.069 302.633 511.513 298.698 503 296C510.886 288.904 525.81 287.198 536 285.729C540.48 285.084 546.258 285.526 550 283C554.31 285.276 557.443 283.32 562 283.132C568.661 282.857 575.414 283.45 582 282C585.457 285.457 590.48 283.042 595 283C600.671 282.947 606.463 281.303 612 281.444C614.4 281.505 616.613 282.657 619 282.917C623.295 283.384 627.69 282.778 632 283.028C659.733 284.633 687.551 295.684 709.611 312.611C727.549 326.376 748.006 342.102 760.722 361C769.369 373.849 774.641 388.095 781.111 402C789.667 420.389 795.892 438.658 797.917 459C798.919 469.075 797.164 479.064 796.083 489C793.366 513.978 785.873 536.51 777.444 560C771.539 576.46 765.767 593.107 756.528 608C751.433 616.212 744.744 623.467 738.861 631C725.27 648.404 710.257 664.754 692.778 678.333C688.657 681.535 683.452 685.391 678.611 687.389C675.705 688.589 673.306 688.145 670.778 690.417C669.181 691.852 667.25 693.682 667.222 696C667.198 698.075 668.581 700.107 670 699M595 383L596 384L595 383z"/>
<path style="fill:#696969; stroke:none;" d="M598 412C597.834 419.318 602.403 427.062 604.623 434C608.75 446.894 612.073 459.978 615.745 473C617.351 478.698 619.798 484.168 620.905 490C623.352 502.896 621.343 516.206 619.076 529C618.079 534.632 615.617 540.27 616 546C612.187 549.068 611.168 555.794 608.452 560C604.846 565.584 600.43 571.35 596.03 576.335C592.633 580.183 588.449 582.911 587 588C580.388 588.988 575.314 595.391 570.714 599.923C562.699 607.821 554.143 615.677 545 622.254C541.553 624.733 537.855 627.032 534 628.826C531.092 630.179 528.037 630.478 526 633C521.504 632.231 513.842 634.25 511 638C506.78 635.539 502.748 638.27 498.285 639.025C490.009 640.425 481.377 641.442 473 642C475.152 633.264 475.026 624.298 476.019 615.424C477.098 605.77 478.259 596.269 478.9 586.576C481.596 545.848 480.51 505.267 472.186 465.004C469.164 450.385 466.333 431.446 453.154 422.13C449.432 419.499 441.108 414.418 437 418C433.979 413.41 422.567 412.807 420 418C407.017 416.719 396.72 424.323 386.715 431.405C363.942 447.525 338.592 466.849 325.174 492C319.558 502.525 318.196 513.126 319.103 524.714C319.449 529.129 319.204 534.123 323 537C322.142 543.829 326.237 550.719 328.561 557C330.701 562.783 331.477 568.912 333.595 574.714C335.089 578.808 336.166 582.616 340 585C339.301 591.658 344.491 597.014 348.09 602.17C355.135 612.263 364.056 619.539 372.579 628.286C378.825 634.694 386.39 642.217 396 642C398.502 645.82 402.533 647.267 407 647L407 649C408.797 649 408.521 648.986 410 648C412.997 651.724 419.506 653.098 424 652C426.335 654.714 430.128 654.553 433.576 654.824C440.799 655.393 447.819 655.05 455 656C454.35 654.7 454.853 655 453 655C458.392 654.894 455.293 667.547 453.917 671.389C452.536 675.244 448.125 677.146 445 679.389C439.453 683.37 434.478 688.02 429.611 692.778C427.17 695.164 423.778 696.501 424 700C418.932 701.773 416.852 705.763 413.522 709.715C405.017 719.811 399.455 731.675 394.947 744C388.563 761.455 380.709 779.428 377.579 797.83C373.602 821.218 375.519 847.173 376.116 870.83C376.461 884.5 377.566 897.627 380.651 911C381.698 915.535 382.151 922.083 386 925C385.81 931.884 389.891 938.107 392.715 944.17C399.632 959.021 407.631 974.87 417.686 987.911C422.023 993.535 426.874 1003.45 435 1002L434 1004C445.762 999.87 437.078 989.435 432.445 983C417.957 962.877 404.393 939.807 397.025 916C389.895 892.96 390.569 869.681 390.982 846C391.221 832.321 389.507 818.682 391.289 805C392.86 792.946 397.41 781.405 401.329 770C407.874 750.959 413.891 732.764 426.09 716.425C432.868 707.346 442.647 700.552 451 693C442.418 739.226 440.645 784.842 450.49 831C453.187 843.646 455.238 857.056 460.384 869.039C463.806 877.005 469.177 884.618 473.709 892C482.466 906.264 494.774 920.681 507.424 931.625C512.636 936.134 519.821 941.75 527 940C528.948 945.139 532.872 945.879 538 946C538.706 950.727 548.319 949.917 552 949C552.442 951.652 555.467 951.036 558 950.958C564.149 950.77 570.273 951.523 575 947C583.707 952.593 600.105 942.18 607.385 937.336C613.368 933.356 619.949 930.561 625.561 925.949C642.646 911.909 655.581 888.777 658.866 867C663.633 835.399 658.662 804.677 647.571 775C644.426 766.584 642.31 757.912 637.866 750C628.635 733.57 615.502 719.989 603.05 706C584.311 684.948 562.908 664.991 536 655.126C528.498 652.375 520.782 651.446 513 650C516.601 648.773 520.178 647.819 524 648C524.726 645.821 524.439 646.22 526 647L526 645C536.12 645.678 546.043 639.965 554.039 634.329C565.149 626.497 574.426 616.219 584.438 607.13C594.605 597.902 605.599 589.542 613.455 578.089C618.987 570.025 629.597 559.627 627 549C631.41 546.231 632.254 539.87 633.195 535C635.592 522.602 638.052 508.624 636.83 496C636.431 491.879 636.271 485.752 633 483C634.185 473.569 627.551 463.172 625.604 454C624.717 449.819 624.566 444.702 621 442C621.936 434.812 617.738 427.821 615.796 421C614.948 418.019 614.184 414.453 611 414C611.552 406.741 609.544 393.384 605.836 387.109C604.035 384.061 600.457 382.563 597.019 383.529C588.186 386.012 593.118 399.044 594.627 404.999C595.343 407.827 595.725 410.162 598 412z"/>
<path style="fill:#758bfd; stroke:none;" d="M602 383L603 384L602 383M591.333 388.667C591.278 388.722 591.222 389.778 591.667 389.333C591.723 389.277 591.778 388.222 591.333 388.667M591.333 391.667C591.278 391.722 591.222 392.778 591.667 392.333C591.723 392.277 591.778 391.222 591.333 391.667M607 392L608 393L607 392M608 396L609 397L608 396M609 404L610 405L609 404M595 408L596 409L595 408M609 408L610 409L609 408M610 409L611 410L610 409M597 412L598 413L597 412M611 412L611 414C612.635 413.455 612.455 413.635 613 412L611 412M427 414C428.248 414.685 428.548 414.749 430 415C428.751 414.315 428.452 414.251 427 414M436 415L436 418C436.696 416.446 436.696 416.554 436 415M438 416C439.248 416.685 439.548 416.749 441 417C439.751 416.315 439.452 416.251 438 416M598.333 416.667C598.278 416.722 598.222 417.778 598.667 417.333C598.723 417.277 598.778 416.222 598.333 416.667M418.667 417.333C418.222 417.778 419.278 417.722 419.333 417.667C419.778 417.222 418.722 417.278 418.667 417.333M410 418L411 419L410 418M412.667 418.333C412.222 418.777 413.278 418.722 413.333 418.667C413.778 418.222 412.722 418.278 412.667 418.333M406 419L407 420L406 419M448.667 419.333C448.222 419.777 449.278 419.722 449.333 419.667C449.778 419.222 448.722 419.278 448.667 419.333M599 419L600 420L599 419M451.667 421.333C451.223 421.777 452.278 421.722 452.333 421.667C452.778 421.222 451.722 421.278 451.667 421.333M400.667 422.333C400.223 422.777 401.278 422.722 401.333 422.667C401.778 422.222 400.722 422.278 400.667 422.333M616 422L616 425C616.696 423.446 616.696 423.554 616 422M394 425L393 427C394.263 426.029 394.392 426.306 394 425M391.333 427.667C391.278 427.722 391.222 428.778 391.667 428.333C391.722 428.278 391.778 427.222 391.333 427.667M458 427L459 428L458 427M433 428C434.961 430.723 436.699 430.893 440 431C437.786 429.599 435.496 428.819 433 428M602 428L603 429L602 428M617 428C617.545 429.635 617.365 429.455 619 430L619 428L617 428M428 429C429.506 429.683 430.315 429.826 432 430C430.494 429.317 429.685 429.174 428 429M459 429L460 430L459 429M387 430L386 432L388 432C388 430.147 388.3 430.65 387 430M414 431L413 433L415 433C415 431.147 415.3 431.65 414 431M417.667 431.333C417.222 431.778 418.278 431.722 418.333 431.667C418.778 431.222 417.722 431.278 417.667 431.333M619 431L620 432L619 431M442 432C442.545 433.635 442.365 433.455 444 434C443.455 432.365 443.635 432.545 442 432M604 432L604 435C604.696 433.446 604.696 433.554 604 432M383 433L384 434L383 433M411 433L412 434L411 433M407.667 434.333C407.222 434.778 408.278 434.722 408.333 434.667C408.778 434.222 407.722 434.278 407.667 434.333M620 434L621 435L620 434M445 435L446 436L445 435M463 435L464 436L463 435M376 440L381 437C378.413 436.902 377.644 437.985 376 440M401 438L402 439L401 438M447 438L448 439L447 438M465 438L466 439L465 438M398 439L398 441C399.635 440.455 399.455 440.635 400 439L398 439M448 440L449 441L448 440M606 440L607 441L606 440M621.333 440.667C621.278 440.722 621.222 441.778 621.667 441.333C621.723 441.277 621.778 440.222 621.333 440.667M450 442L451 443L450 442M607.333 442.667C607.278 442.722 607.222 443.778 607.667 443.333C607.723 443.277 607.778 442.222 607.333 442.667M371 443L372 444L371 443M394 443L393 445C394.263 444.029 394.392 444.306 394 443M368 445L367 447C368.263 446.029 368.392 446.306 368 445M388 449C389.457 447.896 389.897 447.457 391 446C389.077 446.901 389.001 447.076 388 449M452 446L453 447L452 446M364 448L365 449L364 448M468.333 448.667C468.278 448.722 468.222 449.778 468.667 449.333C468.722 449.278 468.778 448.222 468.333 448.667M624 448L625 449L624 448M362 449L363 450L362 449M386 449L387 450L386 449M609 450L610 451L609 450M469.333 451.667C469.278 451.722 469.222 452.778 469.667 452.333C469.722 452.278 469.778 451.222 469.333 451.667M383 452L382 454C383.263 453.029 383.392 453.306 383 452M454.333 452.667C454.278 452.722 454.222 453.778 454.667 453.333C454.722 453.278 454.778 452.222 454.333 452.667M625.333 452.667C625.278 452.722 625.222 453.778 625.667 453.333C625.723 453.277 625.778 452.222 625.333 452.667M358 453L359 454L358 453M378 455L378 457C379.635 456.455 379.455 456.635 380 455L378 455M470.333 455.667C470.278 455.722 470.222 456.778 470.667 456.333C470.722 456.278 470.778 455.222 470.333 455.667M354 456L354 458C355.635 457.455 355.455 457.635 356 456L354 456M376 457L375 459C376.263 458.029 376.392 458.306 376 457M455.333 457.667C455.278 457.722 455.222 458.778 455.667 458.333C455.722 458.278 455.778 457.222 455.333 457.667M351 459L352 460L351 459M373 459L374 460L373 459M470 459L471 460L470 459M612.333 459.667C612.278 459.722 612.222 460.778 612.667 460.333C612.723 460.277 612.777 459.222 612.333 459.667M627 460L628 461L627 460M348 462L345 466C346.935 464.804 348.399 464.237 348 462M456 462L457 463L456 462M367 464L366 466C367.263 465.029 367.392 465.306 367 464M457 464L458 465L457 464M613 465L614 466L613 465M472 466L473 467L472 466M629 466L630 467L629 466M343 467L344 468L343 467M362 470C363.457 468.896 363.897 468.457 365 467C363.077 467.901 363.001 468.076 362 470M614.333 467.667C614.278 467.722 614.222 468.778 614.667 468.333C614.723 468.277 614.778 467.222 614.333 467.667M341 469L339 473C340.466 471.505 340.961 471.038 341 469M630 469L631 470L630 469M473 471L474 472L473 471M357 473L358 474L357 473M631 473L632 474L631 473M459 474L460 475L459 474M356 475L357 476L356 475M632 475L633 480C633.473 477.857 633.133 476.899 632 475M336 476L335 478C336.263 477.029 336.392 477.306 336 476M353 478L354 479L353 478M617 478L618 479L617 478M333 480L334 481L333 480M351 480L352 481L351 480M618 481L619 482L618 481M332 482L331 484C332.263 483.029 332.392 483.306 332 482M633.667 482.333C633.222 482.778 634.278 482.722 634.333 482.667C634.777 482.223 633.722 482.278 633.667 482.333M349 483L350 484L349 483M475.333 483.667C475.278 483.722 475.222 484.778 475.667 484.333C475.722 484.278 475.778 483.222 475.333 483.667M329 485L328 487C329.263 486.029 329.392 486.306 329 485M475 486L476 487L475 486M635.333 486.667C635.278 486.722 635.222 487.778 635.667 487.333C635.723 487.277 635.778 486.222 635.333 486.667M327 488L326 490C327.263 489.029 327.392 489.306 327 488M636 490L636 494C636.71 492.24 636.71 491.759 636 490M461 491L461 494C461.696 492.446 461.696 492.554 461 491M324 493L325 494L324 493M621 493L622 494L621 493M323 495L324 496L323 495M322 497L323 498L322 497M462.333 498.667C462.277 498.723 462.222 499.778 462.667 499.333C462.722 499.278 462.778 498.222 462.333 498.667M477 498L477 501C477.696 499.446 477.696 499.554 477 498M321 500L322 501L321 500M622 501L623 502L622 501M336.333 502.667C336.278 502.722 336.222 503.778 336.667 503.333C336.722 503.278 336.778 502.222 336.333 502.667M477 502L478 503L477 502M320.333 503.667C320.278 503.722 320.222 504.778 320.667 504.333C320.722 504.278 320.778 503.222 320.333 503.667M319 507L320 508L319 507M463.333 508.667C463.278 508.722 463.222 509.778 463.667 509.333C463.722 509.278 463.778 508.222 463.333 508.667M621 510L622 511L621 510M318.333 512.667C318.278 512.722 318.222 513.778 318.667 513.333C318.722 513.278 318.778 512.222 318.333 512.667M333.333 514.667C333.278 514.722 333.222 515.778 333.667 515.333C333.722 515.278 333.778 514.222 333.333 514.667M464 514L465 515L464 514M620.333 515.667C620.278 515.722 620.222 516.778 620.667 516.333C620.722 516.278 620.778 515.222 620.333 515.667M635.333 516.667C635.278 516.722 635.222 517.778 635.667 517.333C635.722 517.278 635.778 516.222 635.333 516.667M333 518L333 521C333.696 519.446 333.696 519.554 333 518M464 518L464 525C465.059 522.466 465.059 520.534 464 518M620 518L620 521C620.696 519.446 620.696 519.554 620 518M318 520L318 523C318.696 521.446 318.696 521.554 318 520M333 523L334 524L333 523M619 523L619 527C619.71 525.24 619.71 524.759 619 523M319 525L320 526L319 525M320 526L321 527L320 526M634.333 526.667C634.278 526.722 634.222 527.778 634.667 527.333C634.722 527.278 634.778 526.222 634.333 526.667M334.333 527.667C334.278 527.722 334.222 528.778 334.667 528.333C334.722 528.278 334.778 527.222 334.333 527.667M465 528L465 531C465.696 529.446 465.696 529.554 465 528M618.333 531.667C618.278 531.722 618.222 532.778 618.667 532.333C618.722 532.278 618.778 531.222 618.333 531.667M335 533L336 534L335 533M480.333 533.667C480.278 533.722 480.222 534.778 480.667 534.333C480.722 534.278 480.778 533.222 480.333 533.667M633 533L634 534L633 533M336 535L337 536L336 535M480.333 536.667C480.278 536.722 480.222 537.778 480.667 537.333C480.722 537.278 480.778 536.222 480.333 536.667M322 537L323 538L322 537M337 538L338 539L337 538M632.333 538.667C632.278 538.722 632.222 539.778 632.667 539.333C632.722 539.278 632.778 538.222 632.333 538.667M616 540L617 541L616 540M338 541L339 542L338 541M466 541L467 542L466 541M323.333 542.667C323.278 542.722 323.222 543.778 323.667 543.333C323.722 543.278 323.778 542.222 323.333 542.667M631 542L632 543L631 542M339 544L340 545L339 544M630.333 544.667C630.278 544.722 630.222 545.778 630.667 545.333C630.722 545.278 630.778 544.222 630.333 544.667M466.333 545.667C466.278 545.722 466.222 546.778 466.667 546.333C466.722 546.278 466.778 545.222 466.333 545.667M615 545L616 546L615 545M324 546L325 547L324 546M629 548C627.843 549.817 627.855 549.835 628 552C628.954 550.418 629.197 549.811 629 548M341 549L342 550L341 549M480 549L481 550L480 549M612 551L611 555C612.146 553.36 612.393 552.924 612 551M343.333 554.667C343.278 554.722 343.222 555.778 343.667 555.333C343.722 555.278 343.778 554.222 343.333 554.667M328 556L329 557L328 556M610 556L611 557L610 556M626.333 556.667C626.278 556.722 626.222 557.778 626.667 557.333C626.722 557.278 626.778 556.222 626.333 556.667M343 557L343 559C344.635 558.455 344.455 558.635 345 557L343 557M608.333 559.667C608.278 559.722 608.222 560.778 608.667 560.333C608.722 560.278 608.778 559.222 608.333 559.667M624 562L625 563L624 562M465 564L465 570C465.951 567.715 465.951 566.285 465 564M605 564L606 565L605 564M622.333 564.667C622.278 564.722 622.222 565.777 622.667 565.333C622.722 565.278 622.778 564.222 622.333 564.667M346 565L346 568C346.696 566.446 346.696 566.554 346 565M480 565L480 570C480.83 567.97 480.83 567.03 480 565M620 568L621 569L620 568M347.333 569.667C347.278 569.722 347.222 570.778 347.667 570.333C347.722 570.278 347.778 569.222 347.333 569.667M601 569L600 571C601.263 570.029 601.392 570.306 601 569M618.333 570.667C618.278 570.722 618.222 571.778 618.667 571.333C618.722 571.278 618.778 570.222 618.333 570.667M348 572L349 573L348 572M333 574L333 576L335 576C334.455 574.365 334.635 574.545 333 574M479 574L480 575L479 574M597.333 574.667C597.278 574.722 597.222 575.778 597.667 575.333C597.722 575.278 597.778 574.222 597.333 574.667M616 574C614.965 575.186 614.661 575.604 614 577C615.548 575.738 615.808 575.806 616 574M594 577L593 579L595 579C595 577.147 595.3 577.65 594 577M613 578L614 579L613 578M335 579L336 580L335 579M351 579L352 580L351 579M337 581L338 582L337 581M352 581L353 582L352 581M590 581L589 583L591 583C591 581.147 591.3 581.65 590 581M479 582L479 585C479.696 583.446 479.696 583.554 479 582M353 583L354 584L353 583M609 583L610 584L609 583M338 585L338 587C339.635 586.455 339.455 586.635 340 585L338 585M354 585L355 586L354 585M464.333 585.667C464.278 585.722 464.222 586.778 464.667 586.333C464.722 586.278 464.778 585.222 464.333 585.667M586.333 586.667C586.278 586.722 586.222 587.778 586.667 587.333C586.722 587.278 586.778 586.222 586.333 586.667M355 587L356 588L355 587M478 587L479 588L478 587M339 588L340 589L339 588M583 588L584 589L583 588M604 588L605 589L604 588M340 590L341 593C341.401 591.234 341.289 591.443 340 590M581 590L582 591L581 590M358 591C358.545 592.635 358.365 592.455 360 593C359.455 591.365 359.635 591.545 358 591M579 591L580 592L579 591M599 593L600 594L599 593M342 594L343 595L342 594M463 594L463 597C463.696 595.446 463.696 595.554 463 594M478 595L478 599C478.71 597.24 478.71 596.759 478 595M597 595L598 596L597 595M574 596L575 597L574 596M595 597L594 599C595.263 598.029 595.392 598.306 595 597M363 598L364 599L363 598M571 599C569.814 600.186 569.472 600.584 569 602C570.548 600.738 570.808 600.806 571 599M347 600L348 601L347 600M591 600L592 601L591 600M365 601L366 602L365 601M477.333 601.667C477.278 601.722 477.222 602.778 477.667 602.333C477.722 602.277 477.778 601.222 477.333 601.667M348 602L349 603L348 602M463 602L464 603L463 602M367 603C367.545 604.635 367.365 604.455 369 605C368.455 603.365 368.635 603.545 367 603M349 604L350 605L349 604M462 604L462 608C462.71 606.241 462.71 605.759 462 604M565 605L566 606L565 605M563 606L564 607L563 606M584 606L585 607L584 606M372 607C373.363 609.343 374.732 610.492 377 612C375.451 609.864 374.136 608.549 372 607M561 608L558 612C559.756 610.623 560.54 610.106 561 608M353 609L354 610L353 609M581 609L580 611C581.263 610.029 581.392 610.306 581 609M355 612C355.545 613.635 355.365 613.455 357 614L357 612L355 612M377.667 613.333C377.222 613.778 378.278 613.722 378.333 613.667C378.778 613.222 377.722 613.278 377.667 613.333M476 613C475.798 614.85 475.798 616.15 476 618C476.83 615.969 476.83 615.03 476 613M554 614L551 618C552.756 616.623 553.54 616.106 554 614M461.333 615.667C461.278 615.722 461.222 616.778 461.667 616.333C461.722 616.278 461.778 615.222 461.333 615.667M572 617L572 619C573.635 618.455 573.455 618.635 574 617L572 617M364 619C364.899 621.124 364.876 621.101 367 622C366.027 620.73 365.27 619.973 364 619M548 619C546.814 620.186 546.472 620.584 546 622C547.548 620.738 547.808 620.806 548 619M461 620L462 621L461 620M568 621L569 622L568 621M390 624C390.545 625.635 390.365 625.455 392 626C391.455 624.365 391.635 624.545 390 624M460 624L460 627C460.696 625.446 460.696 625.554 460 624M565 624L564 626C565.263 625.029 565.392 625.306 565 624M475 625L476 626L475 625M393 626L394 627L393 626M372 627L373 628L372 627M396 627L397 628L396 627M562 627L563 628L562 627M534 628L532 629C533.453 629.555 534.076 629.605 534 628M400.333 629.667C400.278 629.722 400.222 630.778 400.667 630.333C400.722 630.278 400.778 629.222 400.333 629.667M402 630L403 631L402 630M474 630L475 631L474 630M528.667 630.333C528.222 630.778 529.278 630.722 529.333 630.667C529.778 630.222 528.722 630.278 528.667 630.333M524 631C524.545 632.635 524.365 632.455 526 633L526 631L524 631M519.667 633.333C519.222 633.778 520.278 633.722 520.333 633.667C520.778 633.222 519.722 633.278 519.667 633.333M459.333 634.667C459.278 634.722 459.222 635.778 459.667 635.333C459.722 635.278 459.778 634.222 459.333 634.667M516.667 634.333C516.222 634.778 517.278 634.722 517.333 634.667C517.778 634.222 516.722 634.278 516.667 634.333M413 635L414 636L413 635M510 638L514 636C511.588 634.645 510.568 635.351 510 638M552 635L550 636C551.453 636.555 552.076 636.604 552 635M381 636C381.545 637.635 381.365 637.455 383 638C382.455 636.365 382.635 636.545 381 636M416.667 636.333C416.222 636.778 417.278 636.722 417.333 636.667C417.778 636.222 416.722 636.278 416.667 636.333M507 636L506 638C507.263 637.029 507.392 637.306 507 636M502 637C500.521 637.986 500.797 638 499 638C500.809 638.574 501.069 638.465 503 638L502 637M384 638L385 639L384 638M422 638C423.248 638.685 423.549 638.749 425 639C423.752 638.315 423.452 638.251 422 638M428 639L429 640L428 639M497 639L498 640L497 639M545 639L546 640L545 639M388 640L389 641L388 640M430 640L431 641L430 640M473 640C474.54 641.803 475.597 641.832 478 642C476.352 641.076 474.825 640.551 473 640M484 640C485.248 640.685 485.548 640.749 487 641C485.752 640.315 485.452 640.251 484 640M543 640L544 641L543 640M439 641C441.89 642.213 444.874 641.998 448 642C445.11 640.787 442.126 641.002 439 641M458 641L459 642L458 641M479.667 641.333C479.222 641.778 480.278 641.722 480.333 641.667C480.778 641.222 479.722 641.278 479.667 641.333M393 642L394 643L393 642M395.333 642.667C395.278 642.722 395.222 643.778 395.667 643.333C395.722 643.278 395.778 642.222 395.333 642.667M531 644C532.506 644.683 533.315 644.826 535 645C533.494 644.317 532.685 644.174 531 644M399 645L400 646L399 645M526 645L526 647L530 646C528.63 645.418 527.494 645.203 526 645M401 646L402 647L401 646M524.333 646.667C524.278 646.722 524.222 647.778 524.667 647.333C524.722 647.278 524.778 646.222 524.333 646.667M405 647L405 649L407 649L407 647L405 647M521 647C518.29 648.149 515.932 648.746 513 649C514.969 650.063 516.798 650.532 519 651C520.248 649.433 521.691 648.712 521 647M409 648L408 650L410 650C410 648.147 410.3 648.65 409 648M503.333 648.667C503.278 648.722 503.222 649.778 503.667 649.333C503.722 649.278 503.778 648.222 503.333 648.667z"/>
<path style="fill:#696969; stroke:none;" d="M512 649L511 650L512 649z"/>
<path style="fill:#758bfd; stroke:none;" d="M412.667 650.333C412.222 650.778 413.278 650.722 413.333 650.667C413.778 650.222 412.722 650.277 412.667 650.333M416 651L417 652L416 651M499 651L500 652L499 651M423 652L422 654L424 654C424 652.147 424.3 652.65 423 652M483 652C482.014 653.479 482 653.203 482 655C479.897 654.61 478.531 654.434 477 653L472 654C475.952 656.994 483.817 657.181 487 653C485.36 652.869 484.544 652.631 483 652M494 655L497 655C497 653.203 496.986 653.479 496 652C494.217 652.98 494.406 652.908 494 655M527 652L528 653L527 652M529 653C530.248 653.685 530.549 653.749 532 654C530.752 653.315 530.452 653.251 529 653M428.667 654.333C428.222 654.778 429.278 654.722 429.333 654.667C429.778 654.222 428.722 654.278 428.667 654.333M432 655C434.332 655.985 436.457 655.981 439 656C436.559 654.845 434.682 654.721 432 655M445 655C447.052 655.874 448.747 655.953 451 656C448.787 654.607 447.609 654.626 445 655M453 654C454.139 655.016 454.612 655.309 456 656C455.02 654.217 455.092 654.406 453 654M490 654L490 656L492 656L492 654L490 654M540.667 657.333C540.222 657.778 541.278 657.722 541.333 657.667C541.778 657.222 540.722 657.278 540.667 657.333M470 658L470 662C470.71 660.24 470.71 659.76 470 658M483.667 658.333C483.222 658.778 484.278 658.722 484.333 658.667C484.778 658.222 483.722 658.278 483.667 658.333M543 658L544 659L543 658M455 659L455 662C455.696 660.446 455.696 660.554 455 659M481 659L482 660L481 659M479 660L480 661L479 660M474 662L475 663L474 662M553 663L554 664L553 663M470 664L471 665L470 664M510 664C511.769 664.779 513.036 664.912 515 665C513.231 664.221 511.964 664.088 510 664M506.667 665.333C506.222 665.778 507.278 665.722 507.333 665.667C507.778 665.222 506.722 665.278 506.667 665.333M454.333 666.667C454.278 666.722 454.222 667.778 454.667 667.333C454.722 667.278 454.778 666.222 454.333 666.667M522.667 666.333C522.222 666.778 523.278 666.722 523.333 666.667C523.778 666.222 522.722 666.278 522.667 666.333M558 666L559 667L558 666M500.667 667.333C500.222 667.778 501.278 667.722 501.333 667.667C501.778 667.222 500.722 667.278 500.667 667.333M496 668L495 670C496.263 669.029 496.392 669.306 496 668M563 669L564 670L563 669M454 670L455 671L454 670M534 670C536.171 671.802 538.393 672.906 541 674C538.838 671.829 536.941 670.871 534 670M487 672L488 673L487 672M567 672C567.545 673.635 567.365 673.455 569 674C568.455 672.365 568.635 672.545 567 672M484.667 673.333C484.222 673.778 485.278 673.722 485.333 673.667C485.778 673.222 484.722 673.278 484.667 673.333M480 676L483 675C481.234 674.599 481.443 674.711 480 676M450 675L451 676L450 675M476 677L477 678L476 677M548 677L549 678L548 677M446 678L447 679L446 678M550 678L551 679L550 678M472 679L468 681C470.14 681.41 470.962 680.969 473 680L472 679M552 679L553 680L552 679M576 679L576 681L578 681C577.455 679.365 577.635 679.545 576 679M442 681L443 682L442 681M556 682L557 683L556 682M559 683L560 684L559 683M580 683C580.545 684.635 580.365 684.455 582 685C581.455 683.365 581.635 683.545 580 683M467.333 685.667C467.278 685.722 467.222 686.778 467.667 686.333C467.722 686.278 467.778 685.222 467.333 685.667M560 685L561 686L560 685M434 688L435 689L434 688M564 688C565.103 689.457 565.543 689.897 567 691C565.897 689.543 565.457 689.103 564 688M466.333 690.667C466.278 690.722 466.222 691.778 466.667 691.333C466.722 691.278 466.778 690.222 466.333 690.667M430 691C427.637 693.239 425.522 695.135 424 698C426.539 696.12 429.767 694.297 430 691M569 692L570 693L569 692M450 693L451 694L450 693M450 695L451 696L450 695M446 696L446 698C447.635 697.455 447.455 697.635 448 696L446 696M594 697L595 698L594 697M422 698C417.783 702.309 414.167 706.869 411 712C416.042 708.931 419.624 703.085 424 699L422 698M443 699C441.814 700.186 441.472 700.584 441 702C442.548 700.738 442.808 700.806 443 699M449 700L449 705C449.83 702.969 449.83 702.031 449 700M578 701L579 702L578 701M438 703L439 704L438 703M580 703L581 704L580 703M436 705L437 706L436 705M602 705L603 706L602 705M583 706C584.33 707.753 585.247 708.67 587 710C585.67 708.247 584.753 707.33 583 706M463 707L464 708L463 707M433 708L434 709L433 708M430 710L431 711L430 710M607 711L608 712L607 711M609 713L610 714L609 713M447 714L447 717C447.696 715.446 447.696 715.554 447 714M462 715L462 718C462.696 716.446 462.696 716.554 462 715M425 716L424 719C425.289 717.557 425.401 717.766 425 716M594 718C594.545 719.635 594.365 719.455 596 720L596 718L594 718M406 719L407 720L406 719M614 719C616.04 721.88 618.12 723.96 621 726C618.96 723.12 616.88 721.04 614 719M446.333 720.667C446.278 720.722 446.222 721.778 446.667 721.333C446.722 721.278 446.778 720.222 446.333 720.667M405 721C404.014 722.479 404 722.203 404 724C405.082 722.616 405.191 722.662 405 721M421 723L422 724L421 723M403 725L404 726L403 725M445.333 725.667C445.278 725.722 445.222 726.778 445.667 726.333C445.722 726.278 445.778 725.222 445.333 725.667M460 725L460 728C460.696 726.446 460.696 726.554 460 725M419 726L418 728C419.263 727.029 419.392 727.306 419 726M602 727L603 728L602 727M401 728L402 729L401 728M622 728L623 729L622 728M605 730C606.103 731.457 606.544 731.897 608 733C606.896 731.543 606.457 731.104 605 730M624 730L625 731L624 730M416 731L417 732L416 731M414.333 733.667C414.278 733.722 414.222 734.778 414.667 734.333C414.722 734.278 414.778 733.222 414.333 733.667M444.333 733.667C444.278 733.722 444.222 734.778 444.667 734.333C444.722 734.277 444.778 733.222 444.333 733.667M398 734L399 735L398 734M458 734L459 735L458 734M608 734C608.545 735.635 608.365 735.455 610 736C609.455 734.365 609.635 734.545 608 734M627 734L628 735L627 734M397 736L398 737L397 736M443 736L443 740C444.084 738.138 444.073 737.883 443 736M458.333 736.667C458.278 736.722 458.222 737.778 458.667 737.333C458.722 737.278 458.778 736.222 458.333 736.667M395.333 741.667C395.278 741.722 395.222 742.778 395.667 742.333C395.722 742.278 395.778 741.222 395.333 741.667M411 741L412 742L411 741M632 741C632.545 742.635 632.365 742.455 634 743C633.455 741.365 633.635 741.545 632 741M616 743L617 744L616 743M394.333 744.667C394.278 744.722 394.222 745.778 394.667 745.333C394.722 745.278 394.778 744.222 394.333 744.667M443 744L443 747C443.696 745.446 443.696 745.554 443 744M458 744C457.665 746.246 457.61 747.779 458 750C458.951 747.715 458.951 746.285 458 744M617 745L618 746L617 745M635.333 745.667C635.278 745.722 635.222 746.778 635.667 746.333C635.722 746.278 635.778 745.222 635.333 745.667M408.333 748.667C408.278 748.722 408.222 749.778 408.667 749.333C408.722 749.278 408.778 748.222 408.333 748.667M619 748L620 749L619 748M443 749L443 761C444.955 757.578 444.513 752.598 443 749M458 751L459 752L458 751M621 751L622 752L621 751M391 753L392 754L391 753M623 753L623 755L625 755C624.455 753.365 624.635 753.545 623 753M639 753L640 754L639 753M390.333 755.667C390.278 755.722 390.222 756.778 390.667 756.333C390.722 756.278 390.778 755.222 390.333 755.667M624 756L625 757L624 756M404 760L405 761L404 760M388.333 761.667C388.278 761.722 388.222 762.778 388.667 762.333C388.722 762.278 388.778 761.222 388.333 761.667M387 764L388 765L387 764M644 765L645 766L644 765M402 766L403 767L402 766M386 767L387 768L386 767M401 769L402 770L401 769M385 770L386 771L385 770M630 770L631 771L630 770M443 772L443 776C443.71 774.241 443.71 773.759 443 772M646 773C646.684 774.58 646.805 774.777 648 776L648 773L646 773M399 775C398.014 776.479 398 776.203 398 778C399.082 776.616 399.191 776.662 399 775M458 775L458 785C459.346 781.793 459.346 778.207 458 775M633 778L634 779L633 778M649 779L650 780L649 779M397 780L398 781L397 780M634 780L635 781L634 780M381.333 782.667C381.278 782.722 381.222 783.778 381.667 783.333C381.722 783.277 381.778 782.222 381.333 782.667M443.333 783.667C443.278 783.722 443.222 784.778 443.667 784.333C443.722 784.278 443.778 783.222 443.333 783.667M650 783L651 784L650 783M635 784L636 785L635 784M651 785L652 786L651 785M636.333 786.667C636.278 786.722 636.222 787.778 636.667 787.333C636.722 787.278 636.778 786.222 636.333 786.667M443 787L443 791C443.71 789.241 443.71 788.759 443 787M652 787L653 788L652 787M394.333 789.667C394.278 789.722 394.222 790.778 394.667 790.333C394.722 790.278 394.778 789.222 394.333 789.667M652 791L653 794C653.685 792.751 653.749 792.452 654 791L652 791M378.333 792.667C378.278 792.722 378.222 793.778 378.667 793.333C378.722 793.278 378.778 792.222 378.333 792.667M458.333 792.667C458.278 792.722 458.222 793.778 458.667 793.333C458.722 793.278 458.778 792.222 458.333 792.667M638 792L639 793L638 792M393 795L394 796L393 795M654.333 795.667C654.278 795.722 654.222 796.778 654.667 796.333C654.722 796.278 654.778 795.222 654.333 795.667M444 796L445 797L444 796M458.333 796.667C458.278 796.722 458.222 797.778 458.667 797.333C458.722 797.278 458.778 796.222 458.333 796.667M639 796L640 797L639 796M392 798L393 799L392 798M444 798L444 801L446 800C445.455 798.365 445.635 798.545 444 798M377 799L378 800L377 799M459.333 799.667C459.278 799.722 459.222 800.778 459.667 800.333C459.722 800.278 459.778 799.222 459.333 799.667M444 802L445 803L444 802M391 803L391 806C391.696 804.446 391.696 804.554 391 803M641.333 803.667C641.278 803.722 641.222 804.778 641.667 804.333C641.722 804.278 641.778 803.222 641.333 803.667M656.333 803.667C656.278 803.722 656.222 804.778 656.667 804.333C656.722 804.278 656.778 803.222 656.333 803.667M445 805L446 806L445 805M376 806L377 807L376 806M657.333 806.667C657.278 806.722 657.222 807.778 657.667 807.333C657.722 807.278 657.778 806.222 657.333 806.667M376 808L376 811C376.696 809.446 376.696 809.554 376 808M446.333 809.667C446.278 809.722 446.222 810.778 446.667 810.333C446.722 810.278 446.778 809.222 446.333 809.667M461 809L462 810L461 809M657 809L658 810L657 809M658.333 812.667C658.278 812.722 658.222 813.778 658.667 813.333C658.722 813.278 658.778 812.222 658.333 812.667M376 814L376 817C376.696 815.446 376.696 815.554 376 814M462 815L462 819C462.71 817.24 462.71 816.759 462 815M644 815L645 816L644 815M447 816L447 819C447.696 817.446 447.696 817.554 447 816M644 817C644.406 819.092 644.217 819.02 646 820C645.309 818.612 645.015 818.139 644 817M659 817L659 822C659.83 819.97 659.83 819.03 659 817M390 820L391 821L390 820M463 820L463 824C463.71 822.241 463.71 821.759 463 820M390.333 822.667C390.278 822.722 390.222 823.778 390.667 823.333C390.722 823.278 390.778 822.222 390.333 822.667M645 824L645 829C645.83 826.97 645.83 826.03 645 824M390 825L390 831C390.951 828.715 390.951 827.285 390 825M464 825L464 829C464.71 827.241 464.71 826.759 464 825M660 828L660 831C660.696 829.446 660.696 829.554 660 828M450.333 830.667C450.278 830.722 450.222 831.778 450.667 831.333C450.722 831.278 450.778 830.222 450.333 830.667M465.333 831.667C465.278 831.722 465.222 832.778 465.667 832.333C465.722 832.278 465.778 831.222 465.333 831.667M390 832L391 833L390 832M466.333 836.667C466.278 836.722 466.222 837.778 466.667 837.333C466.722 837.278 466.778 836.222 466.333 836.667M451 837L452 838L451 837M390.333 838.667C390.278 838.722 390.222 839.778 390.667 839.333C390.722 839.278 390.778 838.222 390.333 838.667M389 840L390 841L389 840M467 842L468 843L467 842M453.333 845.667C453.278 845.722 453.222 846.778 453.667 846.333C453.722 846.278 453.778 845.222 453.333 845.667M468.333 845.667C468.278 845.722 468.222 846.778 468.667 846.333C468.722 846.278 468.778 845.222 468.333 845.667M454.333 849.667C454.278 849.722 454.222 850.778 454.667 850.333C454.722 850.278 454.778 849.222 454.333 849.667M660 849L660 854C660.83 851.97 660.83 851.03 660 849M390 851L390 858C391.059 855.466 391.059 853.534 390 851M376 852L377 853L376 852M470 855L471 856L470 855M456 857L457 858L456 857M390 859L390 862C390.696 860.446 390.696 860.554 390 859M457.333 859.667C457.278 859.722 457.222 860.778 457.667 860.333C457.722 860.278 457.778 859.222 457.333 859.667M473 862L474 863L473 862M390 863L390 873C391.346 869.793 391.346 866.207 390 863M458 863L458 865L460 865C459.455 863.365 459.635 863.545 458 863M474 864L475 865L474 864M459 867L460 868L459 867M643 867C643.406 869.092 643.217 869.02 645 870C644.309 868.611 644.016 868.139 643 867M477 869L478 870L477 869M461 871L462 872L461 871M376 872L377 873L376 872M642 873L643 874L642 873M657.333 873.667C657.278 873.722 657.222 874.778 657.667 874.333C657.722 874.278 657.778 873.222 657.333 873.667M390 876L391 877L390 876M464 876L465 877L464 876M481 876L482 877L481 876M641 876L642 877L641 876M482 878L483 879L482 878M656 878L657 879L656 878M466 879L467 880L466 879M467 881L468 882L467 881M639.333 881.667C639.278 881.722 639.222 882.778 639.667 882.333C639.722 882.278 639.778 881.222 639.333 881.667M390 882L391 883L390 882M468 883L469 886C469.401 884.234 469.289 884.443 468 883M486 884L487 885L486 884M654 884L655 885L654 884M391 886L391 890C391.71 888.241 391.71 887.759 391 886M472 889L473 890L472 889M489 889L490 890L489 889M377.333 890.667C377.278 890.722 377.222 891.778 377.667 891.333C377.722 891.278 377.778 890.222 377.333 890.667M473 891L474 892L473 891M491 891C491.545 892.635 491.365 892.455 493 893C492.455 891.365 492.635 891.545 491 891M634 891L635 892L634 891M377.333 893.667C377.278 893.722 377.222 894.778 377.667 894.333C377.722 894.278 377.778 893.222 377.333 893.667M650 893C649.014 894.479 649 894.203 649 896C650.082 894.616 650.191 894.662 650 893M493 894L494 895L493 894M632 894L633 895L632 894M477 897C477.545 898.635 477.365 898.455 479 899C478.455 897.365 478.635 897.545 477 897M630 897L631 898L630 897M647 898L646 900C647.263 899.029 647.392 899.306 647 898M497 899C497.545 900.635 497.365 900.455 499 901C498.455 899.365 498.635 899.545 497 899M629 899L628 901C629.263 900.029 629.392 900.306 629 899M393.333 900.667C393.278 900.722 393.222 901.778 393.667 901.333C393.722 901.278 393.778 900.222 393.333 900.667M480 901C480.545 902.635 480.365 902.455 482 903C481.455 901.365 481.635 901.545 480 901M645 901L646 902L645 901M626 902L625 905C626.289 903.557 626.401 903.766 626 902M501 903L502 904L501 903M644 903L643 905C644.263 904.029 644.392 904.306 644 903M483 905L484 906L483 905M642 906L641 908C642.263 907.029 642.392 907.306 642 906M623 907L620 911C621.756 909.623 622.54 909.106 623 907M395 908L395 911C395.696 909.446 395.696 909.554 395 908M505 908L506 909L505 908M380 910L381 911L380 910M489.333 911.667C489.278 911.722 489.222 912.778 489.667 912.333C489.722 912.278 489.778 911.222 489.333 911.667M638 911L639 912L638 911M396 912L396 915C396.696 913.446 396.696 913.554 396 912M618 912L619 913L618 912M491 914L492 915L491 914M616 914L617 915L616 914M636 914L637 915L636 914M397 917L398 918L397 917M493 917C493.545 918.635 493.365 918.455 495 919C494.455 917.365 494.635 917.545 493 917M612 917L609 919C610.806 919.053 611.262 918.799 613 918L612 917M634 917L635 918L634 917M632.333 918.667C632.278 918.722 632.222 919.778 632.667 919.333C632.722 919.278 632.778 918.222 632.333 918.667M607 920L606 922C607.263 921.029 607.392 921.306 607 920M497 921C497.545 922.635 497.365 922.455 499 923C498.455 921.365 498.635 921.545 497 921M518 921L519 922L518 921M630 921L631 922L630 921M399 923L400 924L399 923M628 923C626.608 924.406 625.927 925.271 625 927C626.756 925.623 627.54 925.106 628 923M522 924L523 925L522 924M384.667 925.333C384.222 925.778 385.278 925.722 385.333 925.667C385.778 925.222 384.722 925.278 384.667 925.333M400 925L401 926L400 925M599 925L600 926L599 925M525.667 926.333C525.222 926.778 526.278 926.722 526.333 926.667C526.778 926.222 525.722 926.278 525.667 926.333M385 927L386 928L385 927M528 927C528.98 928.783 528.908 928.594 531 929C529.861 927.984 529.388 927.691 528 927M401 928L402 929L401 928M621.667 928.333C621.222 928.778 622.278 928.722 622.333 928.667C622.778 928.222 621.722 928.278 621.667 928.333M386.333 929.667C386.278 929.722 386.222 930.778 386.667 930.333C386.722 930.278 386.778 929.222 386.333 929.667M505 929C505.545 930.635 505.365 930.455 507 931C506.455 929.365 506.635 929.545 505 929M533 929L534 930L533 929M402.333 930.667C402.278 930.722 402.222 931.778 402.667 931.333C402.722 931.278 402.778 930.222 402.333 930.667M535 930C535.994 932.203 535.67 932.047 538 932C536.861 930.984 536.388 930.691 535 930M619 930L620 931L619 930M587 931L588 932L587 931M617 931L618 932L617 931M508 932L509 933L508 932M539 932L540 933L539 932M585 932L586 933L585 932M538 933L539 934L538 933M614 933C612.257 934.111 611.881 934.27 611 936L615 934L614 933M388.333 934.667C388.278 934.722 388.222 935.778 388.667 935.333C388.722 935.278 388.778 934.222 388.333 934.667M543 934L544 935L543 934M578.667 934.333C578.222 934.778 579.278 934.722 579.333 934.667C579.778 934.222 578.722 934.278 578.667 934.333M404 935L405 936L404 935M512 935L513 936L512 935M547.667 935.333C547.222 935.778 548.278 935.722 548.333 935.667C548.778 935.222 547.722 935.278 547.667 935.333M572 935C573.724 936.055 573.921 936.036 576 936C574.494 935.317 573.685 935.174 572 935M552.667 936.333C552.222 936.778 553.278 936.722 553.333 936.667C553.778 936.222 552.722 936.278 552.667 936.333M555 936C558.562 937.595 562.171 937.546 566 937C562.568 935.56 558.7 936 555 936M607 938L610 937C608.222 936.045 607.979 936.234 607 938M515 937L516 938L515 937M517 938C518.686 939.656 519.746 940.251 522 941C520.369 939.634 518.962 938.858 517 938M406 939L407 940L406 939M604 939L605 940L604 939M523 941C524.693 942.062 526.04 942.52 528 943L527 940L523 941M602 940L598 942C600.14 942.41 600.962 941.968 603 941L602 940M407 941L408 942L407 941M392.333 942.667C392.278 942.722 392.222 943.778 392.667 943.333C392.722 943.278 392.778 942.222 392.333 942.667M408 943L409 944L408 943M594 944L595 945L594 944M534 946C535.735 947.05 535.932 947.046 538 947C536.494 946.317 535.685 946.174 534 946M587 946C588.248 946.685 588.548 946.749 590 947C588.752 946.315 588.452 946.251 587 946M410 947L411 948L410 947M573 950C575.875 949.968 578.075 950.208 580 948C578.108 947.919 577.624 947.866 576 947C574.076 948.001 573.902 948.077 573 950M538.667 948.333C538.222 948.778 539.278 948.722 539.333 948.667C539.778 948.222 538.722 948.278 538.667 948.333M581 948C582.506 948.683 583.315 948.826 585 949C583.494 948.317 582.685 948.174 581 948M411 949L412 950L411 949M543.667 949.333C543.222 949.778 544.278 949.722 544.333 949.667C544.778 949.222 543.722 949.278 543.667 949.333M548 950C549.659 950.406 550.242 950.309 552 950C550.341 949.594 549.758 949.691 548 950M564.667 950.333C564.222 950.778 565.278 950.722 565.333 950.667C565.778 950.222 564.722 950.278 564.667 950.333M396 952L397 953L396 952M397 954L398 955L397 954M398 956L399 957L398 956M399 958L401 962C401.163 959.855 400.63 959.515 399 958M417 959L418 960L417 959M418 961L419 962L418 961M402 963L403 964L402 963M424 971L425 972L424 971M408 972L409 973L408 972M427 976L428 977L427 976M411 978L412 979L411 978M429 979L430 980L429 979M413 981L414 982L413 981M434 986L435 987L434 986M417 987L418 988L417 987M420 991C420.545 992.635 420.365 992.455 422 993L422 991L420 991M438 991L439 992L438 991M440 995L441 996L440 995M424 996L425 997L424 996M440 998L441 999L440 998M427 1000C428.103 1001.46 428.544 1001.9 430 1003C429.098 1001.08 428.924 1001 427 1000M431 1005C433.209 1004.32 433.703 1003.92 435 1002C432.868 1002.78 432.229 1003.13 431 1005M438 1002L439 1003L438 1002M435 1004L436 1005L435 1004z"/>
</svg>
